<svg xmlns="http://www.w3.org/2000/svg" viewBox="0 0 240 240"><defs><style>.cls-1{fill:#dc0000;}.cls-2{fill:#46d160;}.cls-3{fill:#fff;}</style></defs><g id="Layer_1" data-name="Layer 1"><path id="p1" class="cls-1" d="M114,0h9.73l.86,0,.73,0a119.5,119.5,0,0,1,58.42,18.2A120.12,120.12,0,0,1,240,114v9.7a118.47,118.47,0,0,1-13.52,51.75,121.09,121.09,0,0,1-50.28,50.7A122.31,122.31,0,0,1,126,240h-9.7a118.75,118.75,0,0,1-52.43-13.86,121,121,0,0,1-52.68-55.28A122.81,122.81,0,0,1,0,126v-9.73A118.54,118.54,0,0,1,8.45,75.5,120.22,120.22,0,0,1,114,0ZM36.64,174.29c9.72-8,19.64-15.7,29.43-23.58L171.23,66.82C178,61.44,184.7,56,191.46,50.69a100.74,100.74,0,0,0-19.52-15.63C160.06,28.23,147,22.77,133.25,21.39c-5.63-.71-11.53-.27-17.25-.41C101.43,20.57,86.54,25,73.69,31.71A98.57,98.57,0,0,0,38.47,62.64c-4.38,6-7.31,12.5-10.54,19.1-2.67,7.34-5.34,14.31-6.2,22.12-1,6-.71,12-.74,18.14C20.26,140.36,26.57,159.07,36.64,174.29ZM180,89.24,81.22,168.05q-15.06,12-30.11,24C67.8,207.25,89.34,217.52,112,218.94c7.63-.2,15.54.6,23-.79a98.8,98.8,0,0,0,71.57-49.57c2.34-4.78,5-9.32,6.61-14.44,3.14-7.7,4.59-15.67,5.62-23.89.32-6.07,0-12.19.14-18.27a98.43,98.43,0,0,0-13.47-43C196.93,75.64,188.5,82.5,180,89.24Z"/><path id="p3" class="cls-2" d="M116,21c5.72.14,11.62-.3,17.25.41,13.74,1.38,26.81,6.84,38.69,13.67a100.74,100.74,0,0,1,19.52,15.63C184.7,56,178,61.44,171.23,66.82c-14.77-4.24-29.55-8.41-44.3-12.69-3.41-.89-6.3-2.26-9.86-1.09-16.59,4.73-33.2,9.54-49.81,14.21C65,67.91,63,68.57,61.5,70.5S60.07,74.62,60,77c.07,17,0,34,0,51a48,48,0,0,0,6.07,22.7c-9.79,7.88-19.71,15.61-29.43,23.58C26.57,159.07,20.26,140.36,21,122c0-6.09-.27-12.1.74-18.14.86-7.81,3.53-14.78,6.2-22.12,3.23-6.6,6.16-13.15,10.54-19.1A98.57,98.57,0,0,1,73.69,31.71C86.54,25,101.43,20.57,116,21Z"/><path id="p4" class="cls-3" d="M117.07,53c3.56-1.17,6.45.2,9.86,1.09,14.75,4.28,29.53,8.45,44.3,12.69L66.07,150.71A48,48,0,0,1,60,128c0-17,0-34,0-51,.1-2.36,0-4.54,1.53-6.48s3.53-2.59,5.76-3.25C83.87,62.58,100.48,57.77,117.07,53Z"/><path id="p5" class="cls-2" d="M205.48,69A98.43,98.43,0,0,1,219,112c-.1,6.08.18,12.2-.14,18.27-1,8.22-2.48,16.19-5.62,23.89-1.62,5.12-4.27,9.66-6.61,14.44A98.8,98.8,0,0,1,135,218.15c-7.48,1.39-15.39.59-23,.79-22.65-1.42-44.19-11.69-60.88-26.86q15-12,30.11-24A112.67,112.67,0,0,0,114.07,186c3,1,5.66,2.16,8.87,1,15-4.84,29.87-12.66,41.24-23.76,9.24-9.18,15.5-21,15.78-34.18.1-13.25,0-26.51,0-39.76C188.5,82.5,196.93,75.64,205.48,69Z"/><path id="p6" class="cls-3" d="M180,89.24c0,13.25.06,26.51,0,39.76-.28,13.22-6.54,25-15.78,34.18-11.37,11.1-26.2,18.92-41.24,23.76-3.21,1.19-5.85,0-8.87-1a112.67,112.67,0,0,1-32.85-17.92Z"/></g><g id="Layer_3" data-name="Layer 3"><path class="cls-1" d="M120,19.1A100.9,100.9,0,1,0,220.9,120,100.91,100.91,0,0,0,120,19.1Zm0,199.46A98.56,98.56,0,1,1,218.56,120,98.56,98.56,0,0,1,120,218.56Z"/></g></svg>