<svg id="Layer_1" data-name="Layer 1" xmlns="http://www.w3.org/2000/svg" viewBox="0 0 240 240"><defs><style>.cls-1{fill:#dc0000;}</style></defs><g id="Layer_1-2" data-name="Layer 1"><path id="p1" class="cls-1" d="M114,0h11.32A120.2,120.2,0,0,1,240,114v9.7a118.44,118.44,0,0,1-13.52,51.75,121,121,0,0,1-50.28,50.7A122.3,122.3,0,0,1,126,240h-9.7a118.72,118.72,0,0,1-52.43-13.86,121,121,0,0,1-52.68-55.28A122.8,122.8,0,0,1,0,126v-9.73A118.59,118.59,0,0,1,8.45,75.5,120.22,120.22,0,0,1,114,0ZM36.64,174.29c9.72-8,19.64-15.7,29.43-23.58L171.23,66.82C178,61.44,184.7,56,191.46,50.69a100.74,100.74,0,0,0-19.52-15.63C160.06,28.23,147,22.77,133.25,21.39c-5.63-.71-11.53-.27-17.25-.41-14.57-.41-29.46,4-42.31,10.73A98.56,98.56,0,0,0,38.47,62.64c-4.38,6-7.31,12.5-10.54,19.1-2.67,7.34-5.34,14.31-6.2,22.12-1,6-.71,12-.74,18.14C20.26,140.36,26.57,159.07,36.64,174.29ZM180,89.24,81.22,168.05l-30.11,24c16.69,15.2,38.23,25.47,60.89,26.89,7.63-.2,15.54.6,23-.79a98.82,98.82,0,0,0,71.57-49.57c2.34-4.78,5-9.32,6.61-14.44,3.14-7.7,4.59-15.67,5.62-23.89.32-6.07,0-12.19.14-18.27a98.44,98.44,0,0,0-13.47-43C196.93,75.64,188.5,82.5,180,89.24Z"/></g><g id="Layer_3" data-name="Layer 3"><path class="cls-1" d="M120,19.1A100.9,100.9,0,1,0,220.9,120h0A100.92,100.92,0,0,0,120,19.1Zm0,199.46A98.56,98.56,0,1,1,218.56,120,98.56,98.56,0,0,1,120,218.56Z"/></g></svg>