<svg id="outline" xmlns="http://www.w3.org/2000/svg" viewBox="0 0 56.01 56"><defs><style>.cls-1{fill:#63bdff;}.cls-2{fill:#2e4256;}</style></defs><polygon class="cls-1" points="4.63 8.1 4.63 17.63 0.38 17.63 0.38 0.38 17.63 0.38 17.63 4.63 8.09 4.63 21.45 17.92 17.92 21.33 4.63 8.1"/><path class="cls-2" d="M822.58,508v3.5H812.51l1.29,1.28,12.44,12.38-3,2.9-12.4-12.34-1.28-1.28v10.06h-3.5V508h16.5m.75-.75h-18v18h5v-9l12.92,12.86,4.06-3.94-13-12.92h9v-5Z" transform="translate(-805.33 -507.21)"/><polygon class="cls-1" points="38.38 55.63 38.38 51.38 47.91 51.38 34.56 38.08 38.08 34.67 51.38 47.9 51.38 38.38 55.63 38.38 55.63 55.63 38.38 55.63"/><path class="cls-2" d="M843.41,542.4l12.4,12.34,1.28,1.27V546h3.5v16.5h-16.5V559h10.06l-1.29-1.28L840.43,545.3l3-2.9m0-1-4.06,3.94,13,12.92h-9v5h18v-18h-5v9l-12.92-12.86Z" transform="translate(-805.33 -507.21)"/></svg>